<svg xmlns="http://www.w3.org/2000/svg" width="50" height="50" viewBox="0 0 50 50">
  <path id="icons8-verifiziertes-konto" d="M48.456,19.527h0A10.174,10.174,0,0,0,36.473,7.544a10.172,10.172,0,0,0-16.946,0A10.174,10.174,0,0,0,7.544,19.527h0a10.172,10.172,0,0,0,0,16.946h0A10.174,10.174,0,0,0,19.527,48.456a10.172,10.172,0,0,0,16.946,0A10.174,10.174,0,0,0,48.456,36.473h0A10.172,10.172,0,0,0,48.456,19.527ZM41.973,21.14,26.223,36.89a2.082,2.082,0,0,1-2.946,0L16.083,29.7a2.083,2.083,0,0,1,2.946-2.946l5.721,5.721L39.027,18.194a2.083,2.083,0,0,1,2.946,2.946Z" transform="translate(-3 -3)" fill="#9d00ff"/>
</svg>
